<svg xmlns="http://www.w3.org/2000/svg" width="278" height="278" viewBox="0 0 278 278">
  <path id="Caminho_420" data-name="Caminho 420" d="M476.909,431.876c-2.579-7.146-10.824-17.867-14.547-22.4-10.364-12.605-75.624-31.313-78.488-33.424s-12-13.3-12-13.3h-.627V350.492a69.041,69.041,0,0,0,8.89-12.641c1.3-2.438,2.417-7.646,3.368-14.283,10.753-4.47,12.056-20.043,12.507-28.773.313-6.021-4.3-4.311-7.642-2.316,1.088-4.417,2.1-9.273,2.9-14.448.2-1.338.347-2.653.448-3.951a112.817,112.817,0,0,0,1.239-22.952l3.894,1.427a55.141,55.141,0,0,0-12.7-19.077l3.72-2.1a45.579,45.579,0,0,0-19.936-6.533,60.376,60.376,0,0,0-20.879-8.936c-11.516-2.666-23.533-2.818-35.419-2.955q.7,2.927,1.4,5.852a46.647,46.647,0,0,0-16.767-6.379l1.947,7.4q-3.659-.517-7.315-1.037.755,3.7,1.513,7.4l-4.411-1.505.361,13.956q-1.6-1.106-3.194-2.207c2.5,14.067-4.467,28.358-2.666,42.514a34.4,34.4,0,0,0,2.224,8.469c.369,1.379.825,2.94,1.343,4.61-3.234-1.761-7.15-2.8-6.862,2.765.453,8.733,1.754,24.318,12.518,28.779.954,6.635,2.073,11.84,3.373,14.278a68.83,68.83,0,0,0,8.635,12.352v12.549h-.627s-9.133,11.194-12,13.3S223,396.873,212.632,409.478c-3.723,4.531-11.144,16.29-13.723,23.436C228.932,464.889,282,490.428,337.5,490.428S447.116,465.72,476.909,431.876Z" transform="translate(-198.909 -212.428)" fill="#f3f7fc"/>
</svg>
